<svg id="Layer_1" data-name="Layer 1" xmlns="http://www.w3.org/2000/svg" viewBox="0 0 50.46 50.46"><defs><style>.cls-1{fill:#12b5e1}</style></defs><path class="cls-1" d="M32.69 3.68H19.57A5.28 5.28 0 0014.3 9v33.28a5.27 5.27 0 005.27 5.26h13.12A5.27 5.27 0 0038 42.28V9a5.27 5.27 0 00-5.31-5.32zm3.67 38.6a3.66 3.66 0 01-3.67 3.66H19.57a3.67 3.67 0 01-3.67-3.66v-2.09h20.46zm0-3.69H15.9V12h20.46zm0-28.24H15.9V9a3.67 3.67 0 013.67-3.67h13.12A3.67 3.67 0 0136.36 9z"/><path class="cls-1" d="M28.94 7.48h-5.61a.8.8 0 100 1.6h5.61a.8.8 0 000-1.6zm-9.03.23a.78.78 0 00-.26-.17.81.81 0 00-.61 0 .9.9 0 00-.26.17.79.79 0 00-.23.57.77.77 0 00.06.3.78.78 0 00.17.26.79.79 0 001.13 0 .68.68 0 00.18-.26.77.77 0 00.06-.3.81.81 0 00-.06-.28.68.68 0 00-.18-.29zm6.22 37.53A2.22 2.22 0 1023.92 43a2.22 2.22 0 002.21 2.24zm0-3.43A1.22 1.22 0 1124.92 43a1.22 1.22 0 011.21-1.19z"/></svg>