<svg id="Layer_1" data-name="Layer 1" xmlns="http://www.w3.org/2000/svg" viewBox="0 0 50.46 50.46"><defs><style>.cls-1{fill:#65b4e1}</style></defs><path class="cls-1" d="M17.23 41.45h13.58A9.44 9.44 0 0040.24 32V19.16l-2 2.24V32a7.43 7.43 0 01-7.42 7.42H17.23A7.43 7.43 0 019.81 32V18.44A7.43 7.43 0 0117.23 11h13.58a7.37 7.37 0 013.92 1.13l1.55-1.38A9.37 9.37 0 0030.81 9H17.23a9.44 9.44 0 00-9.43 9.44V32a9.44 9.44 0 009.43 9.45z"/><path class="cls-1" d="M23.98 24.15l-6.99-7.05-3.9 3.45 11.06 13.76 14.08-15.68 1.83-2.03 3.86-4.3-3.15-3.04L37.68 12l-1.5 1.33-12.2 10.82z"/></svg>