<svg xmlns="http://www.w3.org/2000/svg" viewBox="0 0 50.46 50.46"><path d="M41.46 25.65a6.1 6.1 0 003.9-5.4.957.957 0 00-.03-.2 1.068 1.068 0 000-.16L40.92 8.55a.89.89 0 00-.84-.55H11.85a.89.89 0 00-.8.49L5.19 19.8a.805.805 0 000 .17.539.539 0 000 .17A6.12 6.12 0 009 25.65v19.94a.9.9 0 00.9.9h30.66a.9.9 0 00.9-.9V25.65zM39.47 9.77l3.68 9.55h-10.7l-1.08-9.55h8.1zm-9.91 0l1.07 9.55H20l2.27-9.55h7.29zm1.06 11.35c-.53 2-2.74 3.44-5.39 3.44s-4.86-1.48-5.39-3.44h10.78zM12.4 9.77h8l-2.27 9.55H7.47l4.93-9.55zM7 21.12h10.8c-.53 2-2.75 3.44-5.39 3.44S7.54 23.08 7 21.12zm32.71 12.63H10.8v-7.54c.531.096 1.07.147 1.61.15a7.631 7.631 0 006.41-3.19 7.61 7.61 0 006.41 3.19 7.61 7.61 0 006.41-3.19 7.631 7.631 0 006.41 3.19 9.345 9.345 0 001.61-.15l.05 7.54zm-1.61-9.19c-2.64 0-4.86-1.48-5.39-3.44h10.74c-.53 1.96-2.75 3.44-5.4 3.44h.05z"/></svg>