<svg id="Layer_1" data-name="Layer 1" xmlns="http://www.w3.org/2000/svg" viewBox="0 0 50.46 50.46"><defs><style>.cls-1{fill:#12b5e1}</style></defs><path class="cls-1" d="M5.37 29.11l.09.32a1.89 1.89 0 01.1.54V30a7.83 7.83 0 01-.43.74l-.1.17a.73.73 0 00.1.84 4.62 4.62 0 002.38 1.3.57.57 0 00.18 0 .71.71 0 00.69-.54.7.7 0 00-.52-.87 4 4 0 01-1.29-.55 3.36 3.36 0 00.43-.76A2.28 2.28 0 007 30a3.75 3.75 0 00-.14-.92l-.1-.34c0-.13-.08-.26-.11-.39a.76.76 0 000-.11 5.86 5.86 0 01-.5-2.34 5.67 5.67 0 015.5-5.66 5.67 5.67 0 015.51 5.66 5.74 5.74 0 01-.54 2.42c-.07.26-.15.5-.21.74a3.23 3.23 0 00-.15.94 2.06 2.06 0 000 .35v.1a4.09 4.09 0 00.37.72 3.17 3.17 0 01-1 .45.73.73 0 00-.47.9.72.72 0 00.9.47 4.24 4.24 0 002-1.19.73.73 0 00.1-.84l-.11-.18c-.09-.14-.34-.56-.42-.73V30a1.84 1.84 0 01.09-.53l.18-.64a7 7 0 00.63-2.93 7.11 7.11 0 00-7-7.09 7.1 7.1 0 00-6.31 10c.08.05.12.19.15.3zm10 4.89a.81.81 0 00-.78.08 5.51 5.51 0 01-3 .94 5.76 5.76 0 01-3-1 .73.73 0 00-.75-.02c-4.44 2.2-6.28 8.11-5.89 9.26a.8.8 0 00.27.36 18 18 0 009.43 3 16.86 16.86 0 009.44-3 .86.86 0 00.26-.37c.34-1.14-1.5-7.05-5.98-9.25zm-.29 1.47a6.73 6.73 0 011.12.77l-2.07 2.26-1.48-2.14a7.27 7.27 0 002.43-.91zm-6.95 0a7.32 7.32 0 002.44.89l-1.48 2.12L7 36.22a7.18 7.18 0 011.13-.77zm3.48 9.76a16.69 16.69 0 01-8.34-2.56 12.06 12.06 0 013-5.74l2.49 2.71a.52.52 0 00.37.16.51.51 0 00.38-.21l2.06-3 2.05 3a.52.52 0 00.38.21.52.52 0 00.37-.16l2.49-2.71a12 12 0 013 5.73 15.38 15.38 0 01-8.25 2.55z"/><path class="cls-1" d="M14 23.31a.49.49 0 00-.49-.24.47.47 0 00-.39.37c-.63 2.8-2.48 3-4 3.08-.87.08-1.86.16-1.86 1.13 0 2.41 1.94 5.32 4.36 5.32S16 30.06 16 27.65c0-.72-1.44-3.28-2-4.34zM11.61 32c-1.8 0-3.4-2.45-3.41-4.37a3 3 0 011-.17c1.33-.12 3.45-.3 4.47-2.73A17 17 0 0115 27.65c0 1.93-1.6 4.35-3.39 4.35z"/><path d="M36 29.45a.71.71 0 01-1-.62l-.11-2-5.34 2.67a.74.74 0 01-.68 0 .73.73 0 01-.36-.58l-.51-8.5h-2.45l-1.29 20.83h18l-.92-14.37zm-5.18 4.87h-1.57a.72.72 0 010-1.44h1.57a.72.72 0 010 1.44zm6.59 0h-1.58a.72.72 0 010-1.44h1.58a.72.72 0 010 1.44z" fill="none"/><path class="cls-1" d="M16 11a.61.61 0 00-.61-.6.6.6 0 00-.61.6v7.21a7.92 7.92 0 011.22.65zm2.63 10.52V11a.61.61 0 00-.61-.6.6.6 0 00-.61.6v9a8.4 8.4 0 011.22 1.52zM20 11v21.1a.61.61 0 00.61.61.62.62 0 00.61-.61V11a.61.61 0 00-.61-.6.6.6 0 00-.61.6zm10.82 21.88h-1.57a.72.72 0 000 1.44h1.57a.72.72 0 000-1.44zm6.59 0h-1.58a.72.72 0 000 1.44h1.58a.72.72 0 000-1.44zM48.46 20.8a.63.63 0 00-.9-.13 5.86 5.86 0 01-1.33.76c-3.1 1.2-6.36-.74-7.72-3.32-1.83-3.5-4.88-5.1-8.15-4.28a6.26 6.26 0 00-4 2.93.73.73 0 00.64 1.05.7.7 0 00.62-.36 4.82 4.82 0 013.07-2.25c2.59-.65 5 .68 6.54 3.55a8.32 8.32 0 007.06 4.46 6.7 6.7 0 002.45-.47 6.62 6.62 0 001.54-.85.79.79 0 00.18-1.09z"/><path class="cls-1" d="M12.5 17.61V8.88H14V5.4h7.51v3.48h1.46v7.55a.79.79 0 001.58 0v-8a1.14 1.14 0 00-1.17-1.13h-.33V4.94a1.12 1.12 0 00-1.12-1.12H13.5a1.12 1.12 0 00-1.12 1.12V7.3H12a1.12 1.12 0 00-1.12 1.12v9.17h.69a8.69 8.69 0 01.93.02zM42.88 28.2l-.14-2.26v-.24a.71.71 0 00-1-.61l-5.32 2.57-.1-2a.72.72 0 00-.35-.59.71.71 0 00-.69 0l-5.37 2.68-.47-7.58A1.18 1.18 0 0028.22 19h-2.94a1.17 1.17 0 00-1.15 1.14l-1 16.17H20.2a15.82 15.82 0 011 1.58H23l-.22 3.54a1.22 1.22 0 00.29.86 1.11 1.11 0 00.86.41h18.6a1.15 1.15 0 00.87-.41 1.21 1.21 0 00.28-.86l-.8-13.22zm-1.67 13.05H24.26l1.29-20.83H28l.52 8.47a.73.73 0 00.36.58.74.74 0 00.68 0l5.34-2.67.11 2a.71.71 0 001 .62l5.32-2.57.92 14.37z"/></svg>