<svg id="Layer_1" data-name="Layer 1" xmlns="http://www.w3.org/2000/svg" viewBox="0 0 50.46 50.46"><defs><style>.cls-1{fill:#12b5e1}</style></defs><path class="cls-1" d="M40.06 31.14a1.67 1.67 0 00.08-.2 5.44 5.44 0 00.3-1.78.38.38 0 00-.17-.33h-.08l.06-.19a5.31 5.31 0 00.12-1.81.4.4 0 00-.21-.31h-.07v-.24a5.3 5.3 0 00-.05-1.81.39.39 0 00-.24-.29v-.14a5.47 5.47 0 00-.14-1.81.36.36 0 00-.25-.27.32.32 0 00-.14 0v-.24a5.4 5.4 0 00-.39-1.77.35.35 0 00-.28-.24h-.1a1.94 1.94 0 000-.24 5.6 5.6 0 00-.57-1.72.41.41 0 00-.31-.21h-.1a1.6 1.6 0 00-.05-.21 5.17 5.17 0 00-.76-1.65.39.39 0 00-.33-.17.35.35 0 00-.14 0 2 2 0 00-.1-.26 5.33 5.33 0 00-1-1.5.39.39 0 00-.37-.12h-.08c0-.09-.1-.19-.16-.28A5.33 5.33 0 0033.3 12a.4.4 0 00-.37-.06l-.09.05a3 3 0 00-.66-.57 3.27 3.27 0 00.85-.13.5.5 0 00.36-.55.51.51 0 00-.48-.45 2.57 2.57 0 01-1.07-.22l1.25-.19a.52.52 0 00.43-.51.52.52 0 00-.43-.51l-1-.14a3.71 3.71 0 001.07-.58.51.51 0 00.12-.64.5.5 0 00-.62-.23 2.65 2.65 0 01-1.07.2l1.08-.65a.51.51 0 00.21-.64.52.52 0 00-.6-.3l-1 .25a3.76 3.76 0 00.76-1 .52.52 0 00-.04-.61.51.51 0 00-.66 0 2.67 2.67 0 01-.91.6l.75-1a.52.52 0 00-.05-.67.5.5 0 00-.66-.05l-.85.6A4.15 4.15 0 0030 2.85a.52.52 0 00-.37-.55.51.51 0 00-.6.28 2.61 2.61 0 01-.61.9l.31-1.22a.53.53 0 00-.3-.6.52.52 0 00-.63.21l-.52.88a3.79 3.79 0 00-.13-1.23.51.51 0 00-1 .13 2.65 2.65 0 01-.21 1.05l-.18-1.23a.52.52 0 00-.54-.47.51.51 0 00-.5.44l-.14 1a4 4 0 00-.57-1 .51.51 0 00-.87.49 2.73 2.73 0 01.2 1.07l-.66-1.1a.51.51 0 00-.93.4l.24 1a4 4 0 00-.93-.76.51.51 0 00-.64.14.5.5 0 000 .66 2.6 2.6 0 01.6.92l-1-.76a.52.52 0 00-.67.05.53.53 0 000 .67l.6.8a3.83 3.83 0 00-1.17-.34.51.51 0 00-.58.32.52.52 0 00.28.6 2.69 2.69 0 01.89.61l-1.22-.3a.51.51 0 00-.38.93l.87.52a3.77 3.77 0 00-1.22.13.5.5 0 00-.36.55.52.52 0 00.49.45 2.46 2.46 0 011.05.22l-1.24.18a.51.51 0 00-.43.51.5.5 0 00.43.5l1 .15a3.73 3.73 0 00-1.08.59.52.52 0 00-.12.65.51.51 0 00.62.22l.4-.12a5 5 0 00-.42.44l-.12.16h-.07a.41.41 0 00-.37.06 5.46 5.46 0 00-1.2 1.26c-.06.09-.11.18-.16.27h-.1a.39.39 0 00-.36.12 5.55 5.55 0 00-1 1.5c0 .09-.07.17-.1.26h-.08a.36.36 0 00-.33.16 5.09 5.09 0 00-.87 1.57l-.06.24a.33.33 0 00-.14 0 .4.4 0 00-.31.21 5.5 5.5 0 00-.58 1.71 1.79 1.79 0 000 .23.28.28 0 00-.13 0 .4.4 0 00-.28.24 5.42 5.42 0 00-.36 1.78v.22a.2.2 0 00-.11 0 .36.36 0 00-.25.27 5.47 5.47 0 00-.14 1.81 1.1 1.1 0 000 .18.38.38 0 00-.23.29 5.59 5.59 0 00-.06 1.81l.06.29a.4.4 0 00-.22.3 5.39 5.39 0 00.06 1.81v.2h-.07a.41.41 0 00-.18.33 5.27 5.27 0 00.27 1.89l.09.26a.37.37 0 00-.15.08.41.41 0 00-.12.35 5.18 5.18 0 00.56 1.73l.08.15a.4.4 0 00-.1.36 5.33 5.33 0 00.68 1.68l.13.18a.27.27 0 00-.07.08.4.4 0 00-.06.37 5.51 5.51 0 00.88 1.59l.13.15-.06.07a.39.39 0 000 .38 5.37 5.37 0 001 1.47l.14.13v.08a.4.4 0 000 .37 5.36 5.36 0 001.2 1.36 1.88 1.88 0 00.23.16.38.38 0 000 .54 6.61 6.61 0 001.4 1.12 3.77 3.77 0 001.16.44 2.64 2.64 0 00.88 0 14.1 14.1 0 002.54 1.41 11.86 11.86 0 002.26.72l.33.07h.24l.29.08v.12a.75.75 0 000 .21 4.44 4.44 0 01-2.39 1.16h-.08a.2.2 0 00-.12.08.17.17 0 000 .14v.07a2.15 2.15 0 00.4.46.16.16 0 00.12 0 5.16 5.16 0 002.27-1.08 2.32 2.32 0 01-1.62 1.16h-.15a.14.14 0 00-.1.13.14.14 0 00.09.15l.13.06a4.41 4.41 0 00.85.23h.11a2.84 2.84 0 001.55-1.56h.21a2.83 2.83 0 001.56 1.56H27a4.12 4.12 0 00.84-.23l.14-.06a.14.14 0 00.09-.14.14.14 0 00-.1-.14h-.15a2.4 2.4 0 01-1.63-1.16 5.26 5.26 0 002.28 1.08.17.17 0 00.12 0 2.15 2.15 0 00.4-.46v-.07a.17.17 0 000-.14.2.2 0 00-.12-.08h-.08a4.37 4.37 0 01-2.38-1.15 1.5 1.5 0 000-.22.49.49 0 000-.12l.26-.07h.28c.36-.06.71-.14 1.05-.23a12.37 12.37 0 004.08-2 2.63 2.63 0 00.88 0 3.77 3.77 0 001.16-.44 6.37 6.37 0 001.4-1.12.4.4 0 00.1-.36.56.56 0 00-.09-.17 2.07 2.07 0 00.24-.17 5.39 5.39 0 001.21-1.36.38.38 0 000-.37.3.3 0 000-.08l.14-.13a5.17 5.17 0 001-1.47.39.39 0 000-.38.34.34 0 00-.08-.09l.14-.16a5.51 5.51 0 00.88-1.59.42.42 0 000-.36.43.43 0 00-.09-.1l.11-.15a5.65 5.65 0 00.71-1.67.42.42 0 00-.09-.36l-.1-.08.11-.2a5.36 5.36 0 00.49-1.74.38.38 0 00-.13-.35zm-.27-3.94a4 4 0 01-.12 1.23 3.07 3.07 0 01-.43 1 2.37 2.37 0 01-.59.59 3.42 3.42 0 01-.65-2.33 4.23 4.23 0 01.56.83.19.19 0 00.17.1.17.17 0 00.16-.12 3 3 0 01.9-1.3zm-.25-2.34a5.05 5.05 0 010 1.23 3.29 3.29 0 01-.34 1 2.32 2.32 0 01-.54.66 3.62 3.62 0 01-.86-2.25 4.46 4.46 0 01.62.75.18.18 0 00.19.08.17.17 0 00.14-.13 3 3 0 01.79-1.34zm-.37-2.22a4.34 4.34 0 01.06 1.23 3.14 3.14 0 01-.29 1 2.41 2.41 0 01-.5.68 3.07 3.07 0 01-.87-1.55 4.54 4.54 0 01-.11-.66 3.93 3.93 0 01.67.74.18.18 0 00.19.07.17.17 0 00.18-.15 3.09 3.09 0 01.67-1.36zM27.33 34.89A5.06 5.06 0 0129 36.35a.54.54 0 01-.11.18.67.67 0 01-.54.21 2.61 2.61 0 00-.43-.63 5.66 5.66 0 00-.83-.71.28.28 0 00-.38.07.28.28 0 00.07.39 5.14 5.14 0 01.73.62 1.89 1.89 0 01.34.49.88.88 0 01-.16.23.54.54 0 01-.48.14 3.93 3.93 0 00-.58-.88.27.27 0 00-.39 0 .25.25 0 00-.09.19.27.27 0 00.06.2 3.1 3.1 0 01.46.68l-.2.11a1.06 1.06 0 01-.59 0 .84.84 0 00.16-.41.78.78 0 00-.27-.67.83.83 0 00-.76-.19.77.77 0 00-.29-.54 1 1 0 00-1-.19.91.91 0 00-.48-.49 1 1 0 00-.83-.06 1.29 1.29 0 00-.69-.27 1.73 1.73 0 00-1.3.48c-1.83 1-4.2 2-5.13 2.47a18.44 18.44 0 01-1.27-3.05c-.1-.3-.19-.61-.28-.92 2.69-.31 4.85-.63 6.42-.94a10.42 10.42 0 003.22-1 2.37 2.37 0 011.68-.61 3.58 3.58 0 01.51.06 1.59 1.59 0 00-.43.22l-.54.41a3.56 3.56 0 01-.42.32c-.12.08-.29.16-.44.24-.37.18-.65.32-.74.55a.73.73 0 00.12.74 1.12 1.12 0 001.08.34 3 3 0 001.27-.39 3.56 3.56 0 00.35-.22 1.53 1.53 0 01.41-.22 1.81 1.81 0 011.14.12 6.08 6.08 0 011.12.61A7.5 7.5 0 0130 35.54a.53.53 0 01-.16.33.64.64 0 01-.46.15 5.61 5.61 0 00-1.83-1.64.27.27 0 00-.37.13.26.26 0 000 .21.27.27 0 00.15.17zm-2.22 2.68a1.49 1.49 0 01-.77.32h-.1a.42.42 0 01-.23-.14 1.74 1.74 0 01.74-.68c.38-.22.55-.09.57-.08s.12.19.11.22-.2.31-.29.37zM21.92 36c.39-.38.7-.49 1-.36a.44.44 0 01.2.18.33.33 0 010 .1l-.18.13a1.81 1.81 0 00-.75.91l-.19-.02c-.34-.11-.36-.29-.37-.35s.04-.33.29-.59zm-.38-.4a1.58 1.58 0 00-.47.7h-.16c-.2 0-.34-.1-.37-.17s-.07-.15.07-.33a1.19 1.19 0 01.93-.42.49.49 0 01.18 0zm1.67.91c.51-.36.78-.48 1-.26a.29.29 0 01.11.19.62.62 0 01-.23.32 1.78 1.78 0 00-.66.75 1.07 1.07 0 01-.29 0 .67.67 0 01-.38-.09.26.26 0 01-.12-.21c0-.21.36-.53.57-.68zm7.46-25.31a4 4 0 01-.85.25 3.34 3.34 0 01-.62.06 2 2 0 01-1.2-.35 2.48 2.48 0 01.71-.28 2.45 2.45 0 011 0 3.08 3.08 0 011 .34zm.47 1.31a2 2 0 01-.61.12h-.09a2.58 2.58 0 01-1.62-.61 3.35 3.35 0 01.69-.13 2 2 0 011.63.62zm-2.55-2a4 4 0 01-1.16.31.18.18 0 00-.16.13.22.22 0 00.08.2 3.85 3.85 0 01.76.71 3 3 0 01-2.25-1 1.9 1.9 0 01.62-.38 3.51 3.51 0 012.13 0s-.01-.01-.02-.01zm-2.38-.39a3.49 3.49 0 01-1.09.53.18.18 0 000 .34 3.56 3.56 0 01.86.51 3.85 3.85 0 01-.48 0 3.14 3.14 0 01-1.93-.5 1.84 1.84 0 01.53-.49 3.57 3.57 0 012.1-.51l.01.08zm-2.45 0a2.54 2.54 0 01-1 .76.18.18 0 00-.1.19.17.17 0 00.14.15 4.28 4.28 0 011 .32 4.85 4.85 0 01-.63.16 3.77 3.77 0 01-.66.06 2.69 2.69 0 01-1.15-.24 1.91 1.91 0 01.41-.59 3.5 3.5 0 012-.86s0 .04-.01.04zm-2.29.41a3.18 3.18 0 01-.86 1.11.18.18 0 00.12.31h.49a2.4 2.4 0 01.51.11 5.32 5.32 0 01-.61.26 3.52 3.52 0 01-1.12.28 2.48 2.48 0 01-.68-.09c.08-.4.45-1.41 2.16-2zM20.88 13a9.46 9.46 0 018.7 0l1 .58a12.26 12.26 0 011.37 1l.63.59a13.2 13.2 0 01.94 1l.46.59c.25.33.48.68.71 1l.35.59c.19.34.37.68.54 1l.27.59c.15.34.29.68.42 1l.21.59a2.58 2.58 0 01.08.26c.09.25.16.51.23.77l.16.59c.08.34.15.68.22 1l.1.59c.05.34.1.69.14 1v.59c0 .37.06.74.07 1.11H25.62v-2.53h2.61a1.68 1.68 0 001.1-.53 1.51 1.51 0 00.27-.52v-.06a1.71 1.71 0 000-.51l-.08-.59c0-.33-.11-.67-.17-1l-.12-.59c-.08-.33-.16-.67-.27-1l-.18-.59c-.12-.33-.25-.68-.4-1l-.26-.59c-.06-.13-.13-.27-.2-.4a2.56 2.56 0 00-.4-.63 7.65 7.65 0 00-.61-.59 3.15 3.15 0 00-1.91-.67 3.67 3.67 0 00-1.83.58 7 7 0 00-.66.59 3.15 3.15 0 00-.65 1 2.08 2.08 0 00-.06.59.92.92 0 00.47.72.75.75 0 00.18.08l-.16.22-.39.59a7.59 7.59 0 00-.52 1l-.22.59a9 9 0 00-.29 1l-.09.59a1.93 1.93 0 000 .42v.06a1.34 1.34 0 00.2.55 1.18 1.18 0 001 .59h2.86v2.74H12.91c0-.37 0-.74.07-1.11L13 26c0-.35.09-.7.14-1l.1-.59c.07-.35.14-.69.22-1l.16-.59c.07-.26.14-.52.23-.77a2.58 2.58 0 01.08-.26l.21-.59c.13-.35.27-.69.42-1l.27-.59c.17-.35.35-.69.54-1l.35-.59c.23-.35.46-.7.71-1l.46-.59a13.2 13.2 0 01.94-1l.63-.59a12.26 12.26 0 011.37-1zm2.19 9.84a3.18 3.18 0 00-1.6.36v-.15a7.91 7.91 0 011.35-3.2 5.28 5.28 0 01.8-.87l.14-.11a.34.34 0 00.05-.45.33.33 0 00-.44-.06l-.15.12a.61.61 0 01-.63.13.4.4 0 01-.14-.44 2.21 2.21 0 01.57-.93 2.88 2.88 0 012-.92 2.64 2.64 0 01.89.12 2.59 2.59 0 011.49 1.33 14.57 14.57 0 011.11 2.9 4.29 4.29 0 01-1.26-.7.33.33 0 00-.45 0 .32.32 0 000 .46 5.11 5.11 0 001.85.92c.08.35.15.73.22 1.18a4.25 4.25 0 00-1.05-.37c-.21-.06-.41-.11-.57-.17a6.21 6.21 0 01-1.25-.71.32.32 0 10-.4.5 6.54 6.54 0 001.44.83 4.83 4.83 0 00.64.2c.87.23 1.29.42 1.3.88a.34.34 0 01-.12.2 1.5 1.5 0 01-1 .34h-.92a3.41 3.41 0 01-1.73-.5 4.8 4.8 0 00-2.14-.9zm1.68 1.39h-2.59a.69.69 0 01-.57-.2.64.64 0 01-.08-.14c1.16-.53 1.71-.63 3.23.34.01-.02.02-.02.01-.01zm.09 4v2.4h-.08a3 3 0 00-1.82.72c-1 .63-4.13 1.26-9.47 1.87a21.64 21.64 0 01-.56-4.92v-.08zm3.84 5.3a3.55 3.55 0 00-2.7-.8 1.74 1.74 0 00-.59.3l-.32.2a2.58 2.58 0 01-1 .32c-.32 0-.52 0-.6-.11s-.08-.15-.06-.21a2.19 2.19 0 01.47-.26c.17-.09.35-.18.5-.28a4.1 4.1 0 00.47-.35c.13-.1.27-.22.51-.39a2 2 0 011.21-.24H27a4.9 4.9 0 011.85.44l.76.27s1 .33 2.48.67a29.21 29.21 0 004.75.78c-.07.29-.16.58-.25.85a17.83 17.83 0 01-1.33 3.16A21.77 21.77 0 0131 35.63a3.41 3.41 0 01-.56-.5v-.06a7.92 7.92 0 00-1.76-1.52zm1.09-1.66l-.77-.24a5.25 5.25 0 00-2-.47h-.13a4.41 4.41 0 00-1.21-.41v-2.5h11.9v.08a21.7 21.7 0 01-.58 5 34.44 34.44 0 01-7.21-1.44zm8.7-11.5a4.63 4.63 0 01.22 1.21 2.92 2.92 0 01-.14 1.08 2.17 2.17 0 01-.4.73 3 3 0 01-1.1-1.39 4.19 4.19 0 01-.19-.63 4.1 4.1 0 01.78.64.2.2 0 00.19.05.18.18 0 00.12-.16 3.11 3.11 0 01.52-1.51zm-1.34-.48a.16.16 0 00.1-.17 3.11 3.11 0 01.32-1.51 4.36 4.36 0 01.35 1.18 2.83 2.83 0 010 1.09 2.28 2.28 0 01-.32.76A2.87 2.87 0 0136.31 20a4 4 0 01-.25-.6 4.43 4.43 0 01.84.56.19.19 0 00.23-.05zm-1-2a.18.18 0 00.08-.19 3.12 3.12 0 01.14-1.53 4.73 4.73 0 01.48 1.13 2.9 2.9 0 01.17 1.12 2.42 2.42 0 01-.22.8 2.85 2.85 0 01-1.44-1.17 4.25 4.25 0 01-.31-.6 2.77 2.77 0 01.92.49.2.2 0 00.23-.01zm-1.42-1.84a.17.17 0 00.21 0 .18.18 0 00.06-.2 3.42 3.42 0 01-.09-1.52 4.53 4.53 0 01.64 1 3 3 0 01.27 1 2.31 2.31 0 01-.09.83 2.89 2.89 0 01-1.57-.93 4.82 4.82 0 01-.44-.55 2.22 2.22 0 011.06.41zm-1.16-1.85a3.08 3.08 0 01-.35-1.5 4.68 4.68 0 01.79.91 3.25 3.25 0 01.44 1 2.45 2.45 0 01.05.85 2.8 2.8 0 01-1.61-.64 5.17 5.17 0 01-.55-.5 3 3 0 011 .17.17.17 0 00.2 0 .16.16 0 00.03-.29zm-.78-1.2a2.35 2.35 0 01.16.93h-.1a4.55 4.55 0 01-2.19-.86 2.57 2.57 0 011 0 .18.18 0 00.16-.07.18.18 0 000-.21 4 4 0 01-.61-1.15A2.35 2.35 0 0132.77 13zm-14.63-2.2a2.71 2.71 0 01.49-.22 11.06 11.06 0 011.13-.32 2.91 2.91 0 00.86-.34.06.06 0 000-.07.06.06 0 00-.06-.05L18 9.37 20.59 9a.07.07 0 00.06-.07.06.06 0 00-.06-.06 4.49 4.49 0 01-1-.31l-.4-.21a3 3 0 00-1-.38 3.25 3.25 0 01.54 0 10.71 10.71 0 011.17.14 3 3 0 00.92 0 .07.07 0 000-.13l-2.3-1.4 2.58.65a.07.07 0 00.08 0 .07.07 0 000-.08 4 4 0 01-.82-.68l-.36-.4a2.83 2.83 0 00-.81-.75 3.07 3.07 0 01.5.2 9.85 9.85 0 011 .58 3.27 3.27 0 00.85.37.08.08 0 00.07 0v-.08l-1.52-2.18 2.14 1.58a.06.06 0 00.08 0 .07.07 0 000-.09 4.13 4.13 0 01-.5-.94 4.28 4.28 0 01-.14-.43 3 3 0 00-.46-1 4.54 4.54 0 01.38.38 9.81 9.81 0 01.73.93 3 3 0 00.64.67h.07a.07.07 0 000-.08l-.66-2.57 1.46 2.24a.07.07 0 00.08 0 .06.06 0 000-.08 4.61 4.61 0 01-.1-1.06v-.45a3.22 3.22 0 000-1.1 4.4 4.4 0 01.21.5 10.46 10.46 0 01.31 1.13 3.18 3.18 0 00.34.87.08.08 0 00.07 0 .06.06 0 00.05-.06l.37-2.62.38 2.62a.07.07 0 00.07.06.06.06 0 00.06-.06 4.8 4.8 0 01.31-1c.07-.15.14-.28.2-.4a2.79 2.79 0 00.39-1 4.86 4.86 0 010 .54A11 11 0 0126.54 4a3.07 3.07 0 000 .93l.05.06a.08.08 0 00.07 0L28 2.62l-.65 2.58a.07.07 0 000 .08.07.07 0 00.08 0 4.08 4.08 0 01.68-.82 4.31 4.31 0 01.34-.3 3 3 0 00.75-.81 3.07 3.07 0 01-.2.5 10.62 10.62 0 01-.57 1 3.27 3.27 0 00-.37.85.08.08 0 000 .07.06.06 0 00.08 0l2.22-1.57-1.57 2.15a.08.08 0 000 .09.07.07 0 00.09 0 4.2 4.2 0 01.93-.5l.43-.14a2.92 2.92 0 001-.46 4.4 4.4 0 01-.37.38 11.56 11.56 0 01-.92.73 2.93 2.93 0 00-.67.65v.07a.06.06 0 00.07 0l2.57-.66L29.67 8a.07.07 0 000 .08.07.07 0 00.08 0A4.61 4.61 0 0130.78 8h.45a3.22 3.22 0 001.1 0 3.06 3.06 0 01-.49.22 11.12 11.12 0 01-1.13.31 3.09 3.09 0 00-.86.34.06.06 0 000 .07.06.06 0 00.05.06l2.62.37-2.62.4a.06.06 0 00-.06.06.07.07 0 00.06.07 4.49 4.49 0 011 .31l.4.21a3.15 3.15 0 001 .38h-.54a11 11 0 01-1.17-.14h-.06a3 3 0 00-1.26-.28.11.11 0 000-.05.19.19 0 00-.12-.14 5.87 5.87 0 00-1.38-.31h-.34a3.48 3.48 0 00-.57 0 .19.19 0 000-.08.21.21 0 00-.15-.11h-.37a5.33 5.33 0 00-1.35.07l-.33.08h-.13l-.15.06a.22.22 0 00-.05-.17.19.19 0 00-.14-.05 5.32 5.32 0 00-1.68.39 3.21 3.21 0 00-.45.24.22.22 0 010-.06.26.26 0 00-.07-.17h-.05a.15.15 0 00-.13 0 5.18 5.18 0 00-1.59.71h-.84a3.22 3.22 0 00-1.24-.02zm1 .52a3 3 0 01-.5 1.46.2.2 0 000 .21.18.18 0 00.19.07 4 4 0 011-.06 3.72 3.72 0 01-2.16.9h-.1a3.11 3.11 0 011.57-2.61zM16 14.61a3.12 3.12 0 01.43-1 5 5 0 01.82-.93A3 3 0 0117 14.2a.17.17 0 000 .2.17.17 0 00.2 0 4.16 4.16 0 011-.17 6.47 6.47 0 01-.56.5 2.79 2.79 0 01-1.52.65H16a2.23 2.23 0 010-.77zm-.5-.27a3 3 0 01-.11 1.54.19.19 0 00.06.2.18.18 0 00.22 0 2.15 2.15 0 011-.33 3.46 3.46 0 01-2 1.48 3 3 0 01.86-2.89zm-2 3a4.48 4.48 0 01.53-1.11 3.05 3.05 0 01.08 1.54.16.16 0 00.09.19.17.17 0 00.21 0 2 2 0 01.94-.46 4.91 4.91 0 01-.37.63 2.77 2.77 0 01-1.46 1.09 2.47 2.47 0 01-.19-.81 3.15 3.15 0 01.21-1.08zm-1.03 2.06a4.47 4.47 0 01.35-1.18 3.19 3.19 0 01.3 1.52.19.19 0 00.1.17.18.18 0 00.2 0 4.67 4.67 0 01.9-.57 3 3 0 01-1.57 1.92 2.2 2.2 0 01-.31-.76 3.05 3.05 0 01.03-1.1zm-.59 1a3.26 3.26 0 01.49 1.47.17.17 0 00.12.16.19.19 0 00.2-.06 3.37 3.37 0 01.81-.68 3.15 3.15 0 01-.13.61 2.74 2.74 0 01-1.19 1.51 2.29 2.29 0 01-.4-.73 2.89 2.89 0 01-.16-1.07 4.25 4.25 0 01.26-1.24zm-.66 2.25a3.09 3.09 0 01.72 1.35.17.17 0 00.14.14.16.16 0 00.18-.07 3.82 3.82 0 01.71-.76 3.11 3.11 0 01-.09.6 3 3 0 01-.88 1.65 2.23 2.23 0 01-.49-.67 3.14 3.14 0 01-.29-1 4.71 4.71 0 010-1.27zm-.33 2.25a3.14 3.14 0 01.73 1.36.19.19 0 00.16.14.19.19 0 00.18-.11 2.84 2.84 0 01.6-.79 3.82 3.82 0 01-.06.68 2.72 2.72 0 01-.8 1.62 2.27 2.27 0 01-.52-.65 3 3 0 01-.34-1 4.22 4.22 0 01.05-1.28zm-.19 2.37l.14.15a3.07 3.07 0 01.68 1.17.17.17 0 00.17.12.17.17 0 00.17-.15 1.72 1.72 0 01.49-.86 3.46 3.46 0 010 1.12 2.26 2.26 0 01-.66 1.3 3.06 3.06 0 01-.99-2.88zm-.1 2.31l.16.13a3.12 3.12 0 01.79 1.09.18.18 0 00.17.11.18.18 0 00.16-.11 4.06 4.06 0 01.55-.91 3 3 0 01-.43 2.38 3.07 3.07 0 01-1.4-2.72zm.13 2.38a3 3 0 011.15 1 .19.19 0 00.19.08.18.18 0 00.14-.14 4.1 4.1 0 01.39-1 3.14 3.14 0 01.21.61 2.63 2.63 0 01-.32 1.89 2.68 2.68 0 01-.72-.44 3.25 3.25 0 01-.67-.86 4.41 4.41 0 01-.37-1.17zm.54 2.22l.18.08a3.13 3.13 0 011 .87.2.2 0 00.19.07.21.21 0 00.14-.15 3.92 3.92 0 01.29-1 3 3 0 01.09 2.46 3.07 3.07 0 01-1.89-2.36zm.7 2.23l.19.06a3.21 3.21 0 011.14.74.17.17 0 00.19 0 .19.19 0 00.12-.16 3.84 3.84 0 01.17-1 4.53 4.53 0 01.28.59 2.84 2.84 0 01.1 1.83 2.46 2.46 0 01-.78-.29 3.08 3.08 0 01-.82-.72 5 5 0 01-.56-1.08zm1.7 3.09a5.16 5.16 0 01-.75-1 3.15 3.15 0 011.41.65.18.18 0 00.2 0 .19.19 0 00.09-.18 3.84 3.84 0 010-1 4.88 4.88 0 01.34.58 2.94 2.94 0 01.32 1.76 2.34 2.34 0 01-.81-.2 3.09 3.09 0 01-.8-.64zm.44 1a3.21 3.21 0 011.47.5.18.18 0 00.2 0 .19.19 0 00.07-.2 3.07 3.07 0 01-.06-1 3.56 3.56 0 01.97 2.2h-.09a2.41 2.41 0 01-.74-.12 3.23 3.23 0 01-1-.52 4.56 4.56 0 01-.82-.89zm4.13 3.07a1.53 1.53 0 01-.3 0 2.49 2.49 0 01-.46 0 4.15 4.15 0 01-2-1.12 3.06 3.06 0 011.54.2.19.19 0 00.2 0 .18.18 0 000-.2 3.62 3.62 0 01-.23-1 2.89 2.89 0 011.14 2.19zm4.35 1.91a11.71 11.71 0 01-1.51-.52 12.6 12.6 0 01-2.44-1.38 2.42 2.42 0 00-.13-.92 11.55 11.55 0 001.7 1.22 10.86 10.86 0 002.08.89l.18.05a1.2 1.2 0 00.18.7zm1.2-.56a.91.91 0 00.05.77 1.53 1.53 0 01-.7-.43.69.69 0 01-.15-.52.45.45 0 01.2-.34 1.78 1.78 0 011-.13 1.18 1.18 0 00-.4.62zm1.44 2.3a.63.63 0 11.63-.63.63.63 0 01-.63.6zm.77-1.48a1.09 1.09 0 00-.73-.28 1.07 1.07 0 00-.73.29.69.69 0 01-.23-.69c.2-.55 1-.56 1-.56a1.68 1.68 0 01.43.07.84.84 0 01.57.49.71.71 0 01-.31.68zm1.36-.47a1.48 1.48 0 01-.7.43 1 1 0 00.05-.77 1.18 1.18 0 00-.41-.55 1.87 1.87 0 011 .13.45.45 0 01.2.34.69.69 0 01-.14.42zm4.48-1.72A11.14 11.14 0 0130 44.67a12 12 0 01-2.11.79h-.14a1.13 1.13 0 00.2-.72l.21-.06a10.92 10.92 0 002-.88A11.57 11.57 0 0032 42.6a2.53 2.53 0 00-.16.95zm-1.84-.1a10.64 10.64 0 01-2.07.88h-.07a.82.82 0 00-.31-.33 3.41 3.41 0 00-2.32 0 3.44 3.44 0 00-2.33 0 .86.86 0 00-.3.33h-.11a10.26 10.26 0 01-2-.87A12.9 12.9 0 0116.53 40a17.68 17.68 0 01-1.1-1.66c.78-.34 2.78-1.25 4.51-2.14a.9.9 0 00.06.22 1 1 0 00.8.5h.28a1 1 0 00.69.59 2.14 2.14 0 00.38.07.78.78 0 00.3.37 1.52 1.52 0 001.06.15.92.92 0 00.56.34 1.33 1.33 0 00.72-.08v3a.38.38 0 00.39.39.39.39 0 00.39-.39v-3.13a1.69 1.69 0 00.95-.08 1.33 1.33 0 00.48-.25 1.07 1.07 0 001-.31 1 1 0 00.21-.28h.09a1.22 1.22 0 001-.41 1.27 1.27 0 00.2-.31 1.13 1.13 0 00.79-.31 1.11 1.11 0 00.22-.3 21.84 21.84 0 004.49 2.4 16.91 16.91 0 01-1 1.56 12.9 12.9 0 01-4 3.51zm4.93-1.05A4 4 0 0133 43.52a2.49 2.49 0 01-.46 0 1.15 1.15 0 01-.3 0 2.45 2.45 0 01.67-1.7 3.19 3.19 0 01.49-.48 4 4 0 01-.24 1 .18.18 0 00.23.24 3.06 3.06 0 011.54-.2l.01.02zm1.45-1.93a4.6 4.6 0 01-.85.9 3.11 3.11 0 01-1 .52 2.4 2.4 0 01-.73.12h-.09a2.82 2.82 0 01.51-1.74 3.88 3.88 0 01.4-.53 4 4 0 01-.06 1 .2.2 0 00.08.19.18.18 0 00.2 0 3.14 3.14 0 011.47-.5zm.43-1a3.09 3.09 0 01-.9.62 2.3 2.3 0 01-.81.2 2.86 2.86 0 01.32-1.78 3.64 3.64 0 01.34-.56 3.84 3.84 0 01.05 1 .18.18 0 00.1.18.17.17 0 00.19 0 3.27 3.27 0 011.41-.65 4.45 4.45 0 01-.69.99zm1.06-2.06a3.24 3.24 0 01-.82.72 2.17 2.17 0 01-.78.29 2.91 2.91 0 01.11-1.83 4.29 4.29 0 01.26-.58 4.08 4.08 0 01.18 1 .2.2 0 00.12.17.21.21 0 00.2-.05 2.61 2.61 0 011.13-.77l.2-.06a5 5 0 01-.59 1.11zm1.32-3.27a4.36 4.36 0 01-.51 1.11 3.21 3.21 0 01-.75.8 2.39 2.39 0 01-.74.37 3.09 3.09 0 01-.08-1.84 4.75 4.75 0 01.2-.64 4.09 4.09 0 01.27 1 .18.18 0 00.13.15.17.17 0 00.19-.06 3.12 3.12 0 011.24-.93zm.09-1.14a3.22 3.22 0 01-.64.88 2.4 2.4 0 01-.69.46 3 3 0 01-.32-1.86 4.84 4.84 0 01.13-.64 5.16 5.16 0 01.4 1 .17.17 0 00.14.14.19.19 0 00.19-.08l1.11-1.08a4.53 4.53 0 01-.32 1.18zm.34-2.28l-1.18 1.48a2.9 2.9 0 01-.52-1.77 3.72 3.72 0 01.08-.66 3.57 3.57 0 01.49.91.17.17 0 00.16.12.18.18 0 00.16-.1 3.11 3.11 0 011-1.19 4.9 4.9 0 01-.19 1.22z"/><path class="cls-1" d="M26 7.45a7.72 7.72 0 011.17-.11c1.11 0 1.27.37 1.29.41a.17.17 0 00.15.09h.13a.17.17 0 000-.12 1.55 1.55 0 00-1.39-.83 4.56 4.56 0 00-1.26 0c-.17 0-.23.44-.23.44v.11c0 .02.14.01.14.01zm-1.85.47a2.61 2.61 0 00-.87-.09 1.32 1.32 0 00-1.23.63.16.16 0 000 .15.11.11 0 00.07.05.2.2 0 00.26-.11s.06-.18.48-.28a.34.34 0 000 .18.49.49 0 001 0 .48.48 0 000-.2.69.69 0 01.38.35c0 .05.08.09.28.09a.16.16 0 00.12 0 .07.07 0 000-.06 1 1 0 00-.49-.71zm1.85.77c.19 0 .25 0 .28-.09a.67.67 0 01.37-.35.71.71 0 000 .2.48.48 0 00.49.48.47.47 0 00.48-.48.48.48 0 000-.18c.4.1.47.27.48.29a.19.19 0 00.24.1.13.13 0 00.09-.05v-.15a1.37 1.37 0 00-1.24-.63 2.5 2.5 0 00-.87.09 1 1 0 00-.43.66.08.08 0 000 .07s.05.04.11.04zm-4.26-.86h.06a.17.17 0 00.2-.08s.28-.65 2.46-.3h.13a.12.12 0 000-.11s-.06-.41-.23-.44a3.64 3.64 0 00-.76-.07 4 4 0 00-.49 0c-1.14.12-1.39.82-1.39.83v.13c0 .03.05 0 .06 0z"/></svg>