<svg xmlns="http://www.w3.org/2000/svg" viewBox="0 0 50.5 50.5"><path d="M25.3 14.3c-6.1 0-10.9 4.9-10.9 10.9s4.9 10.9 10.9 10.9 10.9-4.9 10.9-10.9-4.9-10.9-10.9-10.9zm0 18.1c-3.9 0-7.1-3.2-7.1-7.1s3.2-7.1 7.1-7.1 7.1 3.2 7.1 7.1-3.2 7.1-7.1 7.1zm13.9-18.5c0 1.4-1.1 2.6-2.6 2.6-1.4 0-2.6-1.1-2.6-2.6s1.1-2.6 2.6-2.6 2.6 1.2 2.6 2.6zm7.2 2.6c-.1-3.5-.9-6.5-3.4-9s-5.5-3.3-8.9-3.4c-3.5-.2-14.1-.2-17.6 0-3.5.1-6.5.9-9 3.4S4.2 13 4.1 16.4c-.2 3.6-.2 14.1 0 17.6.1 3.5.9 6.5 3.4 9s5.5 3.3 8.9 3.4c3.5.2 14.1.2 17.6 0 3.4-.2 6.4-.9 8.9-3.4s3.3-5.5 3.4-8.9c.3-3.6.3-14.1.1-17.6zm-4.5 21.3c-.7 1.9-2.2 3.3-4.1 4.1-2.8 1.1-9.5.9-12.6.9s-9.8.2-12.6-.9c-1.9-.7-3.3-2.2-4.1-4.1-1-2.8-.7-9.4-.7-12.5s-.2-9.8.9-12.6c.7-1.9 2.2-3.3 4.1-4.1 2.8-1.1 9.5-.9 12.6-.9s9.6-.2 12.4.9c1.9.7 3.3 2.2 4.1 4.1 1.1 2.8.9 9.5.9 12.6s.2 9.7-.9 12.5z"/></svg>