<svg id="Layer_1" data-name="Layer 1" xmlns="http://www.w3.org/2000/svg" viewBox="0 0 50.46 50.46"><defs><style>.cls-1{fill:#12b5e1}</style></defs><path class="cls-1" d="M10.93 41.19a1.49 1.49 0 01-1.39-2 21.83 21.83 0 014.33-6.85 14.68 14.68 0 0110.93-4.6h.1a16 16 0 013.77.44 1 1 0 001.19-.66v-.1a1 1 0 00-.7-1.16 18.14 18.14 0 00-4.29-.5h-.1a16.62 16.62 0 00-12.36 5.2 23.85 23.85 0 00-4.69 7.37 3.54 3.54 0 00-.09 2.62 3.5 3.5 0 003.27 2.27h7.19a1 1 0 001-1 1 1 0 00-1-1zM25.4 7.29a8.14 8.14 0 108.14 8.14 8.15 8.15 0 00-8.14-8.14zm6.3 8.14a6.3 6.3 0 11-6.3-6.3 6.31 6.31 0 016.3 6.3z"/><path class="cls-1" d="M18.25 35.87l2.69-2.67a.85.85 0 01.6-.24.83.83 0 01.59.28l.87 1 1-1a.79.79 0 01.59-.26.83.83 0 01.6.26l1 1.12 1.21-1.15A.8.8 0 0128 33a.77.77 0 01.57.25.82.82 0 010 1.16l-1.83 1.69a.81.81 0 01-.59.23.8.8 0 01-.58-.26l-1-1.09-1 1a.79.79 0 01-.6.26.85.85 0 01-.61-.28l-.89-1L20 36.43l1.81 1.66h10.1a.78.78 0 01.78.59l.63 1.85a1.44 1.44 0 001.37 1h4a1.44 1.44 0 001.37-1l1.24-3.73a1.42 1.42 0 000-.91l-1.24-3.74a1.45 1.45 0 00-1.37-1h-4a1.45 1.45 0 00-1.37 1l-.77 2.32a.82.82 0 01-1 .52.81.81 0 01-.56-.78A.78.78 0 0131 34l.77-2.32a3.09 3.09 0 012.93-2.11h4a3.09 3.09 0 012.93 2.11l1.24 3.74a3.1 3.1 0 010 2l-1.24 3.73a3.08 3.08 0 01-2.93 2.12h-4a3.08 3.08 0 01-2.93-2.12l-.44-1.32h-9.82a.82.82 0 01-.55-.22l-2.69-2.45a.87.87 0 01-.27-.61.83.83 0 01.25-.68z"/><circle class="cls-1" cx="38.68" cy="36.3" r="1.07"/></svg>