<svg version="1.1" id="Layer_1" xmlns="http://www.w3.org/2000/svg" x="0" y="0" viewBox="0 0 50.5 50.5" xml:space="preserve"><style>.st0{fill:#12b5e1}</style><path class="st0" d="M26.6 23.4V16c1.3.3 2.6.9 4 1.7.4.2.8.3 1.2.3 1.2 0 2.2-.9 2.2-2.1 0-.9-.5-1.5-1.2-1.9-1.8-1.1-3.7-1.9-6-2.1V9c0-.9-.7-1.7-1.7-1.7-.9 0-1.7.7-1.7 1.7v2.8c-4.8.4-8.1 3.3-8.1 7.4 0 4.4 2.6 6.5 8.3 8v7.6c-2.1-.4-3.9-1.3-5.7-2.6-.4-.3-.8-.4-1.3-.4-1.2 0-2.1.9-2.1 2.1 0 .8.4 1.4 1 1.9 2.4 1.7 5 2.7 7.9 3v2.4c0 .9.8 1.7 1.7 1.7.9 0 1.7-.7 1.7-1.7v-2.3c4.9-.5 8.3-3.3 8.3-7.6-.1-4.1-2.6-6.5-8.5-7.9zm-3.1-.8c-3-1-3.7-2-3.7-3.6 0-1.7 1.2-3 3.7-3.3v6.9zM26.6 35v-7.1c3 .9 3.8 2 3.8 3.7 0 1.9-1.3 3.1-3.8 3.4zM10.2 19.2h-.5v-.5c0-.4-.3-.6-.6-.6s-.6.3-.6.6v.5h-.6c-.4 0-.6.3-.6.6 0 .4.3.6.6.6h.5v.5c0 .4.3.6.6.6s.6-.3.6-.6v-.5h.5c.4 0 .6-.3.6-.6.1-.3-.2-.6-.5-.6zm30.4-9.9h-.5v-.5c0-.4-.3-.6-.6-.6-.4 0-.6.3-.6.6v.5h-.5c-.4 0-.6.3-.6.6s.3.6.6.6h.5v.5c0 .4.3.6.6.6.4 0 .6-.3.6-.6v-.5h.5c.4 0 .6-.3.6-.6s-.2-.6-.6-.6zM11.5 7.8c-.4 0-.7.3-.7.7 0 .4.3.7.7.7.4 0 .7-.3.7-.7.1-.4-.3-.7-.7-.7z"/><circle class="st0" cx="38.8" cy="29.7" r=".7"/></svg>