<svg xmlns="http://www.w3.org/2000/svg" viewBox="0 0 50.5 50.5"><path d="M42.265 29.287c.1-.733-1.471-.336-1.853-.45-.871.307-.689 2.325-1.704.686-.6-.82-1.714-1.421-2.684-1.173-.654.639-1.704.707-1.667-.424-.399-.862-.691-1.702-1.646-1.993-.22-.95.888-2.379-.027-3.2-.58-.415-1.677.145-2.097-.626-.357-1.119-1.01-2.654-.425-3.784-.245-.644-1.177-.292-.814-1.147.071-.915.667-1.893 1.099-2.701-.014-.815.055-1.714.53-2.407-1.259-.745-4.811.022-6.51-.181-.882-.606-1.698-2.452-3.028-2.252-.107-.977-1.098-1.372-1.964-1.576-.905.672-.325 3.24-1.345 3.653-.83.846-2.967 1.3-3.978 1.33-.827.415-.835 1.859-.951 2.612-.38.551-1.805.491-2.162 1.271-.998-.2-.398.827-.541 1.413-3.15 2.277-.796 2.557.08 4.755-.437 2.64-2.731 6.502-2.24 8.892.389.08.591.384.842.647.263.112.62.036.812.298.68.834 1.278 1.416 1.943 2.18 1.462.967 3.85 4.403 5.354 1.662 1.635-1.953.805-5.435.13-7.761.146-.776.197-2.473 1.372-1.55.946.289 3.007.894 3.32 2.051.023 1.289-.308 2.255-.442 3.507.104.217.233.37.354.616-.058.297-.137.583.144.826.233.482.435.342.808.166.526.183.854.881 1.44 1.009.524.468.052 1.481.693 2.031.771.618 1.358 3.003 2.594 2.354 1.016.66 2.442 1.437 3.526.411.821 1.085 3.163 2.9 3.499.49.314-1.492 2.218 1.754 2.758 1.436.359-.708.823-1.653 1.739-1.733 4.852-1.523 2.869-7.482 3.041-11.338z" fill-rule="evenodd" clip-rule="evenodd" fill="#1d1d1b"/></svg>