<svg id="Layer_1" data-name="Layer 1" xmlns="http://www.w3.org/2000/svg" viewBox="0 0 50.46 50.46"><defs><style>.cls-1{fill:#65b4e1}</style></defs><path class="cls-1" d="M44.49 13.29a4.76 4.76 0 10-4.59-3.47.85.85 0 001.63-.46 3.07 3.07 0 113 2.24 3 3 0 01-1.89-.65h-.08a.82.82 0 00-.17-.09h-.54l-.16.05-.14.09-.09.06L37 15.44a14.27 14.27 0 00-24.25 6.42l-.07.31a.85.85 0 00.65 1h.18a.85.85 0 00.83-.67l.06-.27a12.61 12.61 0 11-.35 3.54.82.82 0 00-.52-.74.93.93 0 00-.2 0h-.13L9.86 25h-.27l-.15.07-.12.08a.82.82 0 00-.12.13l-.08.11a.82.82 0 00-.07.19.8.8 0 000 .08 3 3 0 01-.91 1.78 3 3 0 01-2.19.86 3.07 3.07 0 112.76-4.52.85.85 0 101.49-.8 4.76 4.76 0 10-4.28 7H6a4.76 4.76 0 004.55-3.36h1.91a14.26 14.26 0 0023.43 9.47l2.77 3.22a4.71 4.71 0 00-.74 2.26 4.77 4.77 0 004.45 5.06h.31a4.76 4.76 0 00.3-9.52 4.83 4.83 0 00-1.3.1.85.85 0 00.32 1.72 3.11 3.11 0 01.84-.06 3.07 3.07 0 11-3.26 2.87 3 3 0 01.77-1.84.79.79 0 000-.08.82.82 0 00.1-.17.8.8 0 000-.13.66.66 0 000-.32.81.81 0 000-.17.82.82 0 00-.08-.14.79.79 0 00-.05-.1L37.09 35a14.2 14.2 0 001-18.23l4.1-4a4.72 4.72 0 002.3.52z"/><circle class="cls-1" cx="44.49" cy="8.53" r="1.64"/><circle class="cls-1" cx="42.65" cy="41.93" r="1.64" transform="rotate(-86.35 42.653 41.933)"/><circle class="cls-1" cx="5.97" cy="25.26" r="1.64" transform="rotate(-44 5.975 25.26)"/><path class="cls-1" d="M18.84 32.38c0 2.3 5.76 2.54 8.24 2.54a23.43 23.43 0 004.82-.43c.68-.15 2.74-.61 2.74-2.11a8.19 8.19 0 00-3.87-6.63 5.48 5.48 0 10-8 0 8.17 8.17 0 00-3.93 6.63zm7.9-14.14A3.79 3.79 0 1123 22a3.8 3.8 0 013.74-3.75zM24 27a.81.81 0 00.17-.11 5.45 5.45 0 005.08 0 6.38 6.38 0 013.7 5.4c-.23.23-1.44.78-4.64.91-3.92.16-7.17-.46-7.77-1A6.28 6.28 0 0124 27z"/></svg>