<svg id="Layer_1" data-name="Layer 1" xmlns="http://www.w3.org/2000/svg" viewBox="0 0 50.46 50.46"><defs><style>.cls-1{fill:#12b5e1}</style></defs><path class="cls-1" d="M44.3 9.6H6.16a3.11 3.11 0 00-3.11 3.11v25a3.11 3.11 0 003.11 3.11H44.3a3.11 3.11 0 003.11-3.11v-25A3.11 3.11 0 0044.3 9.6zm1.33 28.14a1.33 1.33 0 01-1.33 1.33H6.16a1.33 1.33 0 01-1.33-1.33v-25a1.33 1.33 0 011.33-1.33H44.3a1.33 1.33 0 011.33 1.33z"/><path class="cls-1" d="M13 21.95a1.67 1.67 0 011.14.36 1.27 1.27 0 01.41 1h1.93A2.69 2.69 0 0016 21.8a2.85 2.85 0 00-1.22-1 4.22 4.22 0 00-1.78-.39 4.63 4.63 0 00-1.8.34 2.8 2.8 0 00-1.23.93A2.27 2.27 0 009.56 23a2.6 2.6 0 001.6 2.33 9.87 9.87 0 001.59.64 5.07 5.07 0 011.39.62 1 1 0 01.39.84.91.91 0 01-.39.78 1.81 1.81 0 01-1.08.28q-1.86 0-1.86-1.55H9.27a2.78 2.78 0 00.47 1.6 3.12 3.12 0 001.36 1.09 4.79 4.79 0 002 .4 4 4 0 002.48-.69 2.26 2.26 0 00.92-1.91 2.45 2.45 0 00-.75-1.83 5.86 5.86 0 00-2.4-1.23 5.21 5.21 0 01-1.35-.56.91.91 0 01-.5-.81 1 1 0 01.39-.79 1.78 1.78 0 011.11-.26zm9.95 4.83q0 1.71-1.66 1.71a1.69 1.69 0 01-1.22-.42 1.79 1.79 0 01-.44-1.34v-6.19h-1.94v6.25a3.11 3.11 0 001 2.39 3.76 3.76 0 002.61.87 3.71 3.71 0 002.63-.9 3.16 3.16 0 001-2.44v-6.17h-1.98zm8.94-1.69a2 2 0 001-.77 2.12 2.12 0 00.35-1.21 2.24 2.24 0 00-.88-1.92 4.32 4.32 0 00-2.59-.65h-3.3v9.38h3.65a3.89 3.89 0 002.46-.71 2.48 2.48 0 00.86-2 2.15 2.15 0 00-.44-1.39 2 2 0 00-1.11-.73zm-3.49-3h1.35a2 2 0 011.17.28 1.08 1.08 0 01.37.92q0 1.14-1.46 1.17H28.4zM31.13 28a1.6 1.6 0 01-1.07.33H28.4v-2.49h1.77a1.18 1.18 0 011.33 1.31 1.12 1.12 0 01-.37.85zm5.7-2.16h3.71v-1.5h-3.71V22.1h4.34v-1.56H34.9v9.38h6.29v-1.55h-4.36v-2.53z"/></svg>