<svg id="Layer_1" data-name="Layer 1" xmlns="http://www.w3.org/2000/svg" viewBox="0 0 50.46 50.46"><defs><style>.cls-1{fill:#65b4e1}</style></defs><path class="cls-1" d="M25.38 9.93a9 9 0 00-9.13 8.71 9 9 0 002.55 6.31 8.87 8.87 0 006.2 2.7h.17a8.86 8.86 0 00.16-17.72zm4.56 13.72a6.85 6.85 0 01-4.82 1.9 6.77 6.77 0 01-6.65-6.88 6.92 6.92 0 012.06-4.84 6.8 6.8 0 014.7-2h.12a7.07 7.07 0 016.65 7 6.92 6.92 0 01-2.07 4.82z"/><path class="cls-1" d="M25.47 4.72a13.86 13.86 0 00-10.18 4.06 13.64 13.64 0 00-4.13 9.79c0 10.21 12.25 25.55 12.77 26.2l.79 1 .82-1C26.1 44.14 39.3 28.7 39.3 19A14.08 14.08 0 0025.47 4.72zm-.69 37.72c-2.72-3.58-11.52-15.81-11.52-23.87a11.56 11.56 0 013.5-8.29 12 12 0 018.46-3.47h.21A12 12 0 0137.2 19c0 7.61-9.53 19.89-12.42 23.44z"/><circle class="cls-1" cx="25.23" cy="18.79" r="2.93"/></svg>