<svg xmlns="http://www.w3.org/2000/svg" viewBox="0 0 50.5 50.5"><path d="M40.5 9.9c-4-4.1-9.5-6.4-15.3-6.4C13.4 3.5 3.7 13.1 3.7 25c0 3.8 1 7.5 2.9 10.8L3.5 47 15 44c3.2 1.7 6.6 2.6 10.3 2.6C37.1 46.6 47 37 47 25.1c.1-5.8-2.4-11.2-6.5-15.2zM25.2 43c-3.2 0-6.4-.8-9.1-2.5l-.7-.4-6.7 1.8 1.8-6.6-.5-.7c-1.8-2.8-2.7-6.2-2.7-9.5 0-9.8 8-17.9 17.9-17.9 4.8 0 9.3 1.9 12.6 5.2 3.4 3.4 5.4 7.9 5.4 12.6.2 9.9-8 18-18 18zm9.9-13.4c-.6-.3-3.2-1.6-3.7-1.8-.5-.2-.8-.3-1.2.3-.4.6-1.4 1.8-1.7 2.2-.3.4-.7.4-1.1.1-3.2-1.6-5.2-2.8-7.3-6.4-.6-.9.6-.8 1.6-2.9.2-.4.1-.7-.1-.9-.1-.3-1.2-2.9-1.7-4-.5-1-.8-.9-1.2-.9h-1c-.3 0-.9.1-1.4.7-.5.6-1.9 1.9-1.9 4.5s2 5.2 2.2 5.6c.3.4 3.8 5.8 9.2 8.1 3.4 1.5 4.8 1.6 6.5 1.3 1-.2 3.2-1.3 3.7-2.5s.5-2.3.3-2.5c-.3-.5-.7-.7-1.2-.9z"/></svg>